# xmcd
#
# Track frame offsets: 
#        151
#        11682
#        22861
#        31047
#        39381
#        51919
#        67106
#        76722
#        91405
#        105218
#        117521
#        130599
#        148923
#        162010
#        174300
#        185657
#        193782
#        203569
#        213656
#        222103
#        237816
#        258429
#        267719
#        277846
#        288571
#
# Disc length: 3998 seconds
#
# Revision: 0
# Processed by: cddbd v1.5.1PL2 Copyright (c) Steve Scherf et al.
# Submitted via: ExactAudioCopy v0.95b3
#
DISCID=610f9c19
DTITLE=Elvis Presley - Love Songs
DYEAR=2001
DGENRE=Rock and Roll
TTITLE0=Have I Told You Lately That I Love You
TTITLE1=Is It So Strange
TTITLE2=When It Rains, It Really Pours
TTITLE3=I Beg Of You
TTITLE4=I Want You, I Need You, I Love You
TTITLE5=That's When Your Heartaches Begin
TTITLE6=Young And Beautiful
TTITLE7=Doin' The Best I Can
TTITLE8=Something Blue
TTITLE9=Angel
TTITLE10=That's Someone You Never Forget
TTITLE11=Just Pretend
TTITLE12=It's Impossible
TTITLE13=Love Me
TTITLE14=Too Much
TTITLE15=Teddy Bear
TTITLE16=She's Not You
TTITLE17=Wear My Ring Around Your Neck
TTITLE18=Hard Headed Woman
TTITLE19=Always On My Mind
TTITLE20=I Just Can't Help Believin
TTITLE21=I Need You Love Tonight
TTITLE22=A Big Hunk O' Love
TTITLE23=The Girl Of My Best Friend
TTITLE24=Little Sister
EXTD=
EXTT0=Havel Told You Lately
EXTT1=
EXTT2=
EXTT3=
EXTT4=
EXTT5=
EXTT6=
EXTT7=
EXTT8=
EXTT9=
EXTT10=
EXTT11=
EXTT12=
EXTT13=
EXTT14=
EXTT15=
EXTT16=
EXTT17=
EXTT18=
EXTT19=
EXTT20=
EXTT21=
EXTT22=
EXTT23=
EXTT24=
PLAYORDER=
